<?xml version="1.0" encoding="UTF-8"?>
<svg xmlns="http://www.w3.org/2000/svg" xmlns:xlink="http://www.w3.org/1999/xlink" viewBox="0 0 750 500">
  <defs>
    <linearGradient id="New_Gradient_Swatch_1" data-name="New Gradient Swatch 1" x1="375" y1="-11.84" x2="375" y2="670.25" gradientUnits="userSpaceOnUse">
      <stop offset="0" stop-color="#ffe15c"/>
      <stop offset="1" stop-color="#ed9821"/>
    </linearGradient>
    <clipPath id="clippath">
      <rect width="750" height="500" fill="none"/>
    </clipPath>
  </defs>
  <g isolation="isolate">
    <g id="BACKGROUND">
      <rect width="750" height="500" fill="url(#New_Gradient_Swatch_1)"/>
      <g opacity=".6">
        <g clip-path="url(#clippath)">
          <g mix-blend-mode="multiply" opacity=".3">
            <g>
              <path d="M409.83-263.18c20.9,34.83,32.51,76.63,32.51,118.43,0,27.86-9.29,58.05-20.9,83.59-13.93,25.54-34.83,41.8-51.09,65.02-30.19,44.12-34.83,92.88-23.22,143.97,6.97,20.9,16.25,39.48,25.54,58.05-53.41-71.98-65.02-176.48-6.97-248.46,16.25-32.51,30.19-69.66,25.54-106.81-4.64-41.8-23.22-81.27-51.09-113.78h69.66Z" fill="#dd8422"/>
              <path d="M409.83,763.18c-4.64-6.97-9.29-13.93-16.25-20.9-41.8-58.05-48.76-130.04-13.93-190.41,62.7-71.98,58.05-185.77-2.32-257.75,37.15,58.05,46.44,132.36,9.29,192.73-13.93,23.22-37.15,39.48-51.09,62.7-25.54,46.44-34.83,97.53-20.9,148.61,2.32,9.29,4.64,16.25,6.97,25.54,6.97,13.93,11.61,27.86,18.58,39.48h69.66Z" fill="#dd8422"/>
            </g>
            <g>
              <path d="M284.44-253.89c11.61,13.93,23.22,30.19,32.51,46.44,2.32,9.29,6.97,16.25,11.61,25.54,9.29,30.19,13.93,60.37,11.61,90.56-4.64,44.12-25.54,81.27-39.47,123.07-6.97,20.9-4.64,41.8-2.32,65.02,6.97,44.12,32.51,81.27,65.02,111.46-46.44-37.15-83.59-88.24-90.56-148.61-2.32-34.83,2.32-69.66,18.58-102.17,16.25-71.98-13.93-150.93-71.98-197.38,20.9-4.64,44.12-9.29,65.02-13.93h0Z" fill="#dd8422"/>
              <path d="M530.58,739.96c-60.37-48.76-92.88-132.36-67.34-208.99,41.8-83.59-2.32-188.09-76.63-239.17,44.12,37.15,74.31,95.2,67.34,155.58-4.64,37.15-25.54,69.66-37.15,106.82-20.9,69.66,4.64,143.97,48.76,199.7,20.9-4.64,44.12-9.29,65.02-13.93h0Z" fill="#dd8422"/>
            </g>
            <g>
              <path d="M166.01-216.73c74.31,58.05,106.81,160.22,76.63,250.78-4.64,76.63,44.12,146.29,111.46,178.8-60.37-25.54-113.78-69.66-134.68-134.68-11.61-39.48-4.64-76.63-9.29-116.1-4.64-65.02-48.76-120.75-106.81-148.61,20.9-11.61,41.8-18.58,62.7-30.19h0Z" fill="#dd8422"/>
              <path d="M646.68,686.55c-39.48-20.9-71.98-53.41-92.88-95.2-20.9-41.8-11.61-88.24-16.25-134.68-6.97-78.95-67.34-141.65-139.32-169.51,65.02,34.83,118.43,102.17,109.14,178.8-6.97,39.48-13.93,76.63-6.97,118.43,11.61,53.41,44.12,99.85,85.92,132.36,20.9-9.29,39.48-20.9,60.37-30.19h0Z" fill="#dd8422"/>
            </g>
            <g>
              <path d="M54.56-149.4c44.12,20.9,81.27,51.09,106.81,95.2,18.58,37.15,23.22,76.63,25.54,116.1,6.97,81.27,81.27,141.65,157.9,157.9-27.86-2.32-55.73-11.61-81.27-23.22-34.83-16.25-62.7-41.8-85.92-74.31-20.9-34.83-27.86-71.98-39.48-111.46C119.57-49.55,61.52-89.02,1.15-102.95c18.58-16.25,34.83-30.19,53.41-46.44h0Z" fill="#dd8422"/>
              <path d="M751.17,602.95c-37.15-6.97-69.66-23.22-97.53-48.76-20.9-23.22-37.15-46.44-46.44-76.63-6.97-23.22-9.29-46.44-16.25-67.34-32.51-74.31-106.81-120.75-185.77-130.04,41.8,9.29,81.27,27.86,111.46,58.05,23.22,25.54,41.8,53.41,44.12,88.24,4.64,39.48,6.97,78.95,23.22,116.1,25.54,46.44,62.7,88.24,113.78,104.49,16.25-16.25,34.83-30.19,53.41-44.12h0Z" fill="#dd8422"/>
            </g>
            <g>
              <path d="M-40.65-51.87C52.23-42.58,128.86,29.4,145.12,122.29c25.54,51.09,71.98,85.92,127.71,99.85,20.9,4.64,44.12,6.97,65.02,6.97-78.95,9.29-162.54-16.25-213.63-83.59-13.93-18.58-20.9-39.48-34.83-60.37C70.81,59.59,49.91,41.01,24.37,27.08-8.14,10.83-45.29,8.51-80.12,8.51c11.61-20.9,27.86-39.47,39.48-60.37h0Z" fill="#dd8422"/>
              <path d="M830.12,491.49c-69.66,4.64-141.65-23.22-174.15-85.92-13.93-30.19-32.51-55.73-53.41-78.95-51.09-51.09-123.07-62.7-190.41-55.73,34.83-2.32,69.66,4.64,102.17,18.58,13.93,6.97,27.86,13.93,41.8,25.54,11.61,9.29,20.9,20.9,30.19,32.51,23.22,27.86,27.86,62.7,44.12,95.2,27.86,60.37,92.88,99.85,160.22,106.82,13.93-18.58,25.54-39.48,39.47-58.05h0Z" fill="#dd8422"/>
            </g>
            <g>
              <path d="M-105.67,73.52c58.05-13.93,118.43-2.32,167.19,34.83,27.86,23.22,41.8,53.41,65.02,81.27,4.64,4.64,11.61,9.29,16.25,16.25,4.64,4.64,11.61,9.29,18.58,13.93,6.97,2.32,13.93,6.97,20.9,11.61,46.44,20.9,102.17,23.22,150.93,6.97-62.7,27.86-134.68,25.54-197.38-6.97-34.83-18.58-55.73-51.09-88.24-76.63-53.41-39.48-120.75-39.48-176.48-11.61,6.97-23.22,13.93-46.44,23.22-69.66h0Z" fill="#dd8422"/>
              <path d="M878.89,356.82c-46.44,20.9-99.85,25.54-146.29,4.64-34.83-16.25-58.05-46.44-85.92-71.98-65.02-53.41-155.58-60.37-229.88-27.86,48.76-16.25,102.17-13.93,150.93,6.97,48.76,20.9,71.98,67.34,104.49,106.81,4.64,4.64,11.61,11.61,16.25,16.25,48.76,37.15,111.46,48.76,169.51,34.83,6.97-18.58,11.61-37.15,18.58-55.73,2.32-4.64,2.32-9.29,2.32-13.93h0Z" fill="#dd8422"/>
            </g>
            <g>
              <path d="M-138.18,215.17c58.05-32.51,130.04-44.12,192.73-16.25,6.97,4.64,13.93,6.97,20.9,11.61,20.9,11.61,34.83,27.86,53.41,44.12,27.86,20.9,62.7,27.86,95.2,30.19,37.15,0,76.63-13.93,109.14-32.51-60.37,44.12-141.65,62.7-211.31,32.51-6.97-4.64-13.93-6.97-20.9-11.61-71.98-60.37-174.15-46.44-239.17,11.61v-69.66h0Z" fill="#dd8422"/>
              <path d="M888.18,215.17c-20.9,20.9-48.76,34.83-76.63,44.12-32.51,9.29-69.66,11.61-102.17,0-25.54-9.29-46.44-25.54-69.66-39.48-51.09-27.86-106.81-25.54-160.22-6.97-9.29,4.64-16.25,9.29-25.54,11.61-11.61,6.97-25.54,13.93-34.83,23.22,27.86-18.58,60.37-27.86,95.2-32.51,46.44-2.32,90.56,11.61,125.39,44.12,65.02,67.34,171.83,71.98,248.46,25.54v-69.66h0Z" fill="#dd8422"/>
            </g>
            <g>
              <path d="M-128.89,340.56c34.83-30.19,78.95-48.76,125.39-55.73,30.19-4.64,60.37,2.32,88.24,9.29,20.9,6.97,41.8,18.58,62.7,27.86,67.34,23.22,141.65-9.29,185.77-60.37-18.58,30.19-48.76,51.09-78.95,69.66-37.15,18.58-74.31,27.86-116.1,20.9-39.48-9.29-74.31-25.54-113.78-23.22-55.73,6.97-104.49,34.83-139.32,76.63-4.64-20.9-9.29-44.12-13.93-65.02h0Z" fill="#dd8422"/>
              <path d="M864.96,94.42c-53.41,67.34-148.61,95.2-229.88,60.37-30.19-13.93-60.37-11.61-92.88-4.64-53.41,11.61-95.2,46.44-125.39,88.24,11.61-13.93,23.22-23.22,37.15-34.83,6.97-4.64,13.93-6.97,20.9-11.61,39.48-20.9,85.92-30.19,127.71-13.93,37.15,16.25,74.31,32.51,113.78,37.15,44.12,4.64,88.24-6.97,127.71-30.19,9.29-6.97,16.25-11.61,25.54-16.25,4.64-2.32,9.29-6.97,9.29-9.29-2.32-20.9-9.29-44.12-13.93-65.02h0Z" fill="#dd8422"/>
            </g>
            <g>
              <path d="M-91.74,458.99c32.51-37.15,71.98-67.34,120.75-81.27,44.12-11.61,85.92-4.64,130.04,4.64,18.58,2.32,37.15,0,55.73-4.64,6.97-2.32,13.93-4.64,20.9-6.97,46.44-18.58,81.27-55.73,102.17-99.85-16.25,51.09-53.41,92.88-99.85,120.75-18.58,9.29-37.15,16.25-58.05,20.9-30.19,6.97-60.37-2.32-90.56,0-65.02,6.97-123.07,51.09-150.93,109.14-2.32-6.97-4.64-16.25-9.29-23.22-6.97-13.93-16.25-25.54-20.9-39.47h0Z" fill="#dd8422"/>
              <path d="M811.55-21.68c-23.22,48.76-65.02,85.92-116.1,102.17-34.83,11.61-67.34,4.64-102.17,4.64-53.41,2.32-104.49,30.19-139.32,71.98-4.64,6.97-9.29,13.93-16.25,20.9-11.61,16.25-16.25,34.83-25.54,51.09,34.83-65.02,102.17-120.75,178.8-111.46,37.15,4.64,69.66,13.93,106.82,9.29,20.9-4.64,41.8-9.29,60.37-18.58,32.51-16.25,62.7-39.48,83.59-69.66-11.61-18.58-18.58-41.8-30.19-60.37h0Z" fill="#dd8422"/>
            </g>
            <g>
              <path d="M-22.07,570.44c32.51-78.95,111.46-134.68,197.38-130.04,85.92-6.97,153.26-76.63,169.51-160.22-4.64,37.15-16.25,71.98-34.83,104.49-9.29,13.93-20.9,27.86-32.51,39.48-37.15,34.83-81.27,48.76-130.04,58.05-6.97,2.32-13.93,4.64-20.9,6.97-53.41,25.54-92.88,76.63-104.49,134.68-16.25-16.25-27.86-37.15-44.12-53.41h0Z" fill="#dd8422"/>
              <path d="M727.95-123.85c-6.97,37.15-23.22,67.34-48.76,95.2-4.64,4.64-11.61,11.61-16.25,16.25-13.93,9.29-25.54,16.25-39.47,23.22-37.15,13.93-74.31,16.25-109.14,34.83-23.22,13.93-41.8,27.86-58.05,48.76-30.19,37.15-44.12,81.27-51.09,125.39,9.29-37.15,25.54-71.98,51.09-102.17,4.64-4.64,11.61-9.29,16.25-16.25,34.83-30.19,78.95-41.8,125.39-44.12,78.95-2.32,143.97-58.05,176.48-127.71-13.93-18.58-30.19-34.83-46.44-53.41h0Z" fill="#dd8422"/>
            </g>
            <g>
              <path d="M75.45,665.65c4.64-67.34,46.44-132.36,106.82-160.22,41.8-20.9,88.24-30.19,120.75-67.34,37.15-41.8,53.41-95.2,51.09-150.93,4.64,27.86,2.32,55.73-2.32,85.92-2.32,9.29-4.64,16.25-6.97,25.54-9.29,23.22-20.9,46.44-37.15,67.34-27.86,32.51-60.37,55.73-97.53,69.66-53.41,37.15-81.27,104.49-76.63,169.51-20.9-11.61-37.15-30.19-58.05-39.48h0Z" fill="#dd8422"/>
              <path d="M616.49-205.12c6.97,39.48-4.64,78.95-23.22,113.78-23.22,41.8-65.02,60.37-104.49,83.59-74.31,48.76-104.49,137-90.56,220.6-9.29-92.88,55.73-190.41,148.61-206.66,71.98-27.86,123.07-95.2,130.04-171.83-20.9-13.93-39.47-25.54-60.37-39.48h0Z" fill="#dd8422"/>
            </g>
            <g>
              <path d="M198.52,732.99c-18.58-85.92,18.58-183.44,99.85-220.6,67.34-48.76,92.88-143.97,65.02-220.6,23.22,51.09,23.22,109.14,9.29,162.54-13.93,44.12-44.12,76.63-78.95,106.82-51.09,51.09-53.41,130.04-25.54,192.73-23.22-6.97-46.44-13.93-69.66-20.9h0Z" fill="#dd8422"/>
              <path d="M484.14-253.89c25.54,60.37,23.22,132.36-20.9,183.44-20.9,23.22-46.44,41.8-62.7,69.66-9.29,18.58-18.58,37.15-25.54,58.05-13.93,51.09-9.29,102.17,11.61,150.93-20.9-71.98-9.29-155.58,48.76-206.66,23.22-20.9,51.09-32.51,74.31-55.73,44.12-48.76,55.73-116.1,41.8-178.8-23.22-6.97-44.12-11.61-67.34-20.9h0Z" fill="#dd8422"/>
            </g>
          </g>
        </g>
      </g>
    </g>
  </g>
</svg>